<?xml version="1.0" encoding="UTF-8"?>
<svg width="168px" height="193px" viewBox="0 0 168 193" version="1.1" xmlns="http://www.w3.org/2000/svg" xmlns:xlink="http://www.w3.org/1999/xlink">
    <!-- Generator: Sketch 55.2 (78181) - https://sketchapp.com -->
    <title>refresh_copy</title>
    <desc>Created with Sketch.</desc>
    <g id="homepage" stroke="none" stroke-width="1" fill="none" fill-rule="evenodd">
        <path d="M165.682389,111.643964 C163.85999,108.68863 160.623305,106.895579 157.144134,106.913962 C150.366915,106.005276 144.081657,110.601374 142.913708,117.319967 C138.316917,145.258377 114.378899,165.945731 85.9920033,166.511988 L85.0433082,166.511988 C53.3210576,166.428748 27.3661464,141.30291 26.3433765,109.687098 C25.3206065,78.0712863 49.597608,51.3296665 81.2485279,49.2079367 L81.2485279,68.127945 C81.118856,69.1682518 81.4675234,70.2112831 82.197223,70.9659463 C83.1459181,73.8039475 86.9406984,73.8039475 88.8380885,72.8579471 L130.580672,41.6399334 C131.529367,41.6399334 131.529367,40.6939329 132.478062,39.7479325 C133.426757,36.9099313 133.426757,34.07193 130.580672,33.1259296 L88.8380885,0.961915451 C88.8380885,0.015915034 87.8893934,0.015915034 86.9406984,0.015915034 C84.0718366,-0.204642097 81.5483043,1.89232834 81.2485279,4.74591712 L81.2485279,23.6659254 C39.4068324,24.9589127 4.96014554,56.8831334 0.609446738,98.3999584 C-2.08202348,120.613087 4.2113302,142.980278 18.097837,160.555397 C31.9843437,178.130516 52.31991,189.46557 74.6076624,192.054 L74.6076624,192.054 C77.4537476,192.054 81.2485279,193 84.0946131,193 C125.609866,192.974953 160.974769,162.920022 167.57978,122.049969 C168.536641,118.472773 167.840771,114.65636 165.682389,111.643964 Z" id="refresh_copy" fill="#FFFFFF" fill-rule="nonzero"></path>
    </g>
</svg>