<?xml version="1.0" encoding="UTF-8"?>
<svg width="1627px" height="538px" viewBox="0 0 1627 538" version="1.1" xmlns="http://www.w3.org/2000/svg" xmlns:xlink="http://www.w3.org/1999/xlink">
    <!-- Generator: Sketch 55.2 (78181) - https://sketchapp.com -->
    <title>ALLTHEGREGORS</title>
    <desc>Created with Sketch.</desc>
    <g id="homepage" stroke="none" stroke-width="1" fill="none" fill-rule="evenodd">
        <path d="M211.4,189.2 L229.4,189.2 L224.3,165.2 L183.8,165.2 L179,189.2 L197,189.2 L197,238.4 L94.4,238.4 L94.4,189.2 L106.4,189.2 L157.1,5 L266.3,5 L317,189.2 L329,189.2 L329,238.4 L211.4,238.4 L211.4,189.2 Z M190.4,133.4 L218,133.4 L205.7,73.7 L202.7,73.7 L190.4,133.4 Z M338.6,5 L468.2,5 L468.2,54.2 L440.6,54.2 L440.6,189.2 L467.6,189.2 L467.6,161.6 L527.3,161.6 L527.3,238.4 L338.6,238.4 L338.6,189.2 L356.6,189.2 L356.6,54.2 L338.6,54.2 L338.6,5 Z M539.9,5 L669.5,5 L669.5,54.2 L641.9,54.2 L641.9,189.2 L668.9,189.2 L668.9,161.6 L728.6,161.6 L728.6,238.4 L539.9,238.4 L539.9,189.2 L557.9,189.2 L557.9,54.2 L539.9,54.2 L539.9,5 Z M828.2,5 L1053.8,5 L1053.8,77.6 L1002.2,77.6 L1002.2,54.2 L983,54.2 L983,189.2 L1004,189.2 L1004,238.4 L878,238.4 L878,189.2 L899,189.2 L899,54.2 L879.8,54.2 L879.8,77.6 L828.2,77.6 L828.2,5 Z M1193.3,5 L1310.6,5 L1310.6,54.2 L1292.6,54.2 L1292.6,189.2 L1310.6,189.2 L1310.6,238.4 L1193.3,238.4 L1193.3,189.2 L1208.6,189.2 L1208.6,139.7 L1163.6,139.7 L1163.6,189.2 L1178.9,189.2 L1178.9,238.4 L1061.6,238.4 L1061.6,189.2 L1079.6,189.2 L1079.6,54.2 L1061.6,54.2 L1061.6,5 L1178.9,5 L1178.9,54.2 L1163.6,54.2 L1163.6,99.8 L1208.6,99.8 L1208.6,54.2 L1193.3,54.2 L1193.3,5 Z M1460.9,54.2 L1424.6,54.2 L1424.6,101.6 L1451,101.6 L1451,135.8 L1424.6,135.8 L1424.6,189.2 L1460.9,189.2 L1460.9,141.8 L1528.1,141.8 L1528.1,238.4 L1322.6,238.4 L1322.6,189.2 L1340.6,189.2 L1340.6,54.2 L1322.6,54.2 L1322.6,5 L1528.1,5 L1528.1,95.6 L1460.9,95.6 L1460.9,54.2 Z M126.8,408.7 L233,408.7 L233,453.4 L218,453.4 L218,513.4 C213.399977,515.600011 208.050031,517.849988 201.95,520.15 C195.84997,522.450011 188.85004,524.499991 180.95,526.3 C173.049961,528.100009 164.200049,529.599994 154.4,530.8 C144.599951,532.000006 133.70006,532.6 121.7,532.6 C103.69991,532.6 87.500072,530.400022 73.1,526 C58.699928,521.599978 46.4500505,514.600048 36.35,505 C26.2499495,495.399952 18.500027,482.950076 13.1,467.65 C7.699973,452.349923 5,433.70011 5,411.7 C5,389.899891 7.699973,371.300077 13.1,355.9 C18.500027,340.499923 26.19995,328.000048 36.2,318.4 C46.20005,308.799952 58.399928,301.800022 72.8,297.4 C87.200072,292.999978 103.299911,290.8 121.1,290.8 C133.300061,290.8 144.349951,291.399994 154.25,292.6 C164.15005,293.8 173.049961,295.34999 180.95,297.25 C188.85004,299.150009 195.84997,301.249988 201.95,303.55 C208.050031,305.850011 213.399977,308.099989 218,310.3 L218,382 L143,382 L143,367.9 C143,359.299957 141.250018,353.200018 137.75,349.6 C134.249983,345.999982 128.700038,344.2 121.1,344.2 C113.499962,344.2 107.950018,345.999982 104.45,349.6 C100.949983,353.200018 99.2,359.299957 99.2,367.9 L99.2,455.5 C99.2,464.100043 100.949983,470.199982 104.45,473.8 C107.950018,477.400018 113.499962,479.2 121.1,479.2 C128.700038,479.2 134.249983,477.400018 137.75,473.8 C141.250018,470.199982 143,464.100043 143,455.5 L143,453.4 L126.8,453.4 L126.8,408.7 Z M346.4,479.2 L366.2,479.2 L366.2,528.4 L244.4,528.4 L244.4,479.2 L262.4,479.2 L262.4,344.2 L244.4,344.2 L244.4,295 L385.1,295 C397.300061,295 408.349951,296.199988 418.25,298.6 C428.15005,301.000012 436.499966,304.849973 443.3,310.15 C450.100034,315.450026 455.349982,322.399957 459.05,331 C462.750019,339.600043 464.6,350.099938 464.6,362.5 C464.6,375.700066 461.950027,387.199951 456.65,397 C451.349974,406.800049 443.600051,413.69998 433.4,417.7 L433.7,420.7 C452.900096,423.700015 462.5,435.499897 462.5,456.1 L462.5,479.2 L476.6,479.2 L476.6,528.4 L381.5,528.4 L381.5,457.9 C381.5,451.89997 380.850007,447.050018 379.55,443.35 C378.249994,439.649981 376.150015,436.850009 373.25,434.95 C370.349986,433.04999 366.700022,431.750003 362.3,431.05 C357.899978,430.349996 352.600031,430 346.4,430 L346.4,479.2 Z M362.6,393.4 C368.400029,393.4 372.749986,391.900015 375.65,388.9 C378.550015,385.899985 380,381.000034 380,374.2 L380,363.4 C380,356.599966 378.550015,351.700015 375.65,348.7 C372.749986,345.699985 368.400029,344.2 362.6,344.2 L346.4,344.2 L346.4,393.4 L362.6,393.4 Z M626.9,344.2 L590.6,344.2 L590.6,391.6 L617,391.6 L617,425.8 L590.6,425.8 L590.6,479.2 L626.9,479.2 L626.9,431.8 L694.1,431.8 L694.1,528.4 L488.6,528.4 L488.6,479.2 L506.6,479.2 L506.6,344.2 L488.6,344.2 L488.6,295 L694.1,295 L694.1,385.6 L626.9,385.6 L626.9,344.2 Z M829.1,408.7 L935.3,408.7 L935.3,453.4 L920.3,453.4 L920.3,513.4 C915.699977,515.600011 910.350031,517.849988 904.25,520.15 C898.149969,522.450011 891.15004,524.499991 883.25,526.3 C875.349961,528.100009 866.500049,529.599994 856.7,530.8 C846.899951,532.000006 836.00006,532.6 824,532.6 C805.99991,532.6 789.800072,530.400022 775.4,526 C760.999928,521.599978 748.750051,514.600048 738.65,505 C728.54995,495.399952 720.800027,482.950076 715.4,467.65 C709.999973,452.349923 707.3,433.70011 707.3,411.7 C707.3,389.899891 709.999973,371.300077 715.4,355.9 C720.800027,340.499923 728.49995,328.000048 738.5,318.4 C748.50005,308.799952 760.699928,301.800022 775.1,297.4 C789.500072,292.999978 805.599911,290.8 823.4,290.8 C835.600061,290.8 846.649951,291.399994 856.55,292.6 C866.45005,293.8 875.349961,295.34999 883.25,297.25 C891.15004,299.150009 898.149969,301.249988 904.25,303.55 C910.350031,305.850011 915.699977,308.099989 920.3,310.3 L920.3,382 L845.3,382 L845.3,367.9 C845.3,359.299957 843.550018,353.200018 840.05,349.6 C836.549983,345.999982 831.000038,344.2 823.4,344.2 C815.799962,344.2 810.250018,345.999982 806.75,349.6 C803.249983,353.200018 801.5,359.299957 801.5,367.9 L801.5,455.5 C801.5,464.100043 803.249983,470.199982 806.75,473.8 C810.250018,477.400018 815.799962,479.2 823.4,479.2 C831.000038,479.2 836.549983,477.400018 840.05,473.8 C843.550018,470.199982 845.3,464.100043 845.3,455.5 L845.3,453.4 L829.1,453.4 L829.1,408.7 Z M1059.5,479.2 C1066.30003,479.2 1071.39998,477.450017 1074.8,473.95 C1078.20002,470.449982 1079.9,464.800039 1079.9,457 L1079.9,366.4 C1079.9,358.599961 1078.20002,352.950017 1074.8,349.45 C1071.39998,345.949982 1066.30003,344.2 1059.5,344.2 C1052.69997,344.2 1047.60002,345.949982 1044.2,349.45 C1040.79998,352.950017 1039.1,358.599961 1039.1,366.4 L1039.1,457 C1039.1,464.800039 1040.79998,470.449982 1044.2,473.95 C1047.60002,477.450017 1052.69997,479.2 1059.5,479.2 Z M1174.1,411.7 C1174.1,433.70011 1171.40003,452.349923 1166,467.65 C1160.59997,482.950076 1152.95005,495.399952 1143.05,505 C1133.14995,514.600048 1121.10007,521.599978 1106.9,526 C1092.69993,530.400022 1076.90009,532.6 1059.5,532.6 C1042.09991,532.6 1026.30007,530.400022 1012.1,526 C997.899929,521.599978 985.85005,514.600048 975.95,505 C966.049951,495.399952 958.400027,482.950076 953,467.65 C947.599973,452.349923 944.9,433.70011 944.9,411.7 C944.9,389.899891 947.599973,371.300077 953,355.9 C958.400027,340.499923 966.049951,328.000048 975.95,318.4 C985.85005,308.799952 997.899929,301.800022 1012.1,297.4 C1026.30007,292.999978 1042.09991,290.8 1059.5,290.8 C1076.90009,290.8 1092.69993,292.999978 1106.9,297.4 C1121.10007,301.800022 1133.14995,308.799952 1143.05,318.4 C1152.95005,328.000048 1160.59997,340.499923 1166,355.9 C1171.40003,371.300077 1174.1,389.899891 1174.1,411.7 Z M1285.1,479.2 L1304.9,479.2 L1304.9,528.4 L1183.1,528.4 L1183.1,479.2 L1201.1,479.2 L1201.1,344.2 L1183.1,344.2 L1183.1,295 L1323.8,295 C1336.00006,295 1347.04995,296.199988 1356.95,298.6 C1366.85005,301.000012 1375.19997,304.849973 1382,310.15 C1388.80003,315.450026 1394.04998,322.399957 1397.75,331 C1401.45002,339.600043 1403.3,350.099938 1403.3,362.5 C1403.3,375.700066 1400.65003,387.199951 1395.35,397 C1390.04997,406.800049 1382.30005,413.69998 1372.1,417.7 L1372.4,420.7 C1391.6001,423.700015 1401.2,435.499897 1401.2,456.1 L1401.2,479.2 L1415.3,479.2 L1415.3,528.4 L1320.2,528.4 L1320.2,457.9 C1320.2,451.89997 1319.55001,447.050018 1318.25,443.35 C1316.94999,439.649981 1314.85001,436.850009 1311.95,434.95 C1309.04999,433.04999 1305.40002,431.750003 1301,431.05 C1296.59998,430.349996 1291.30003,430 1285.1,430 L1285.1,479.2 Z M1301.3,393.4 C1307.10003,393.4 1311.44999,391.900015 1314.35,388.9 C1317.25001,385.899985 1318.7,381.000034 1318.7,374.2 L1318.7,363.4 C1318.7,356.599966 1317.25001,351.700015 1314.35,348.7 C1311.44999,345.699985 1307.10003,344.2 1301.3,344.2 L1285.1,344.2 L1285.1,393.4 L1301.3,393.4 Z M1513.4,474.7 C1520.00003,474.7 1524.69999,473.70001 1527.5,471.7 C1530.30001,469.69999 1531.7,466.70002 1531.7,462.7 C1531.7,459.899986 1530.55001,457.45001 1528.25,455.35 C1525.94999,453.249989 1521.30004,450.800014 1514.3,448 C1499.49993,442.399972 1486.55006,437.050025 1475.45,431.95 C1464.34994,426.849974 1455.15004,421.200031 1447.85,415 C1440.54996,408.799969 1435.10002,401.550041 1431.5,393.25 C1427.89998,384.949958 1426.1,374.900059 1426.1,363.1 C1426.1,351.899944 1427.84998,341.850044 1431.35,332.95 C1434.85002,324.049955 1440.54996,316.450031 1448.45,310.15 C1456.35004,303.849968 1466.84993,299.050016 1479.95,295.75 C1493.05007,292.449983 1509.1999,290.8 1528.4,290.8 C1545.80009,290.8 1562.19992,292.549982 1577.6,296.05 C1593.00008,299.550017 1605.79995,304.199971 1616,310 L1616,363.7 L1553,363.7 C1553,357.899971 1551.40002,353.95001 1548.2,351.85 C1544.99998,349.749989 1541.10002,348.7 1536.5,348.7 C1529.89997,348.7 1525.15001,349.549991 1522.25,351.25 C1519.34999,352.950008 1517.9,355.899979 1517.9,360.1 C1517.9,363.500017 1519.44998,365.999992 1522.55,367.6 C1525.65002,369.200008 1530.29997,370.99999 1536.5,373 C1548.10006,376.800019 1559.04995,380.799979 1569.35,385 C1579.65005,389.200021 1588.69996,394.399969 1596.5,400.6 C1604.30004,406.800031 1610.44998,414.299956 1614.95,423.1 C1619.45002,431.900044 1621.7,442.699936 1621.7,455.5 C1621.7,481.50013 1613.30008,500.849936 1596.5,513.55 C1579.69992,526.250063 1555.10016,532.6 1522.7,532.6 C1504.29991,532.6 1486.60009,531.000016 1469.6,527.8 C1452.59992,524.599984 1439.00005,520.800022 1428.8,516.4 L1428.8,457 L1494.8,457 C1494.8,463.00003 1495.99999,467.449985 1498.4,470.35 C1500.80001,473.250014 1505.79996,474.7 1513.4,474.7 Z" id="ALLTHEGREGORS" stroke="#FFFFFF" stroke-width="10" fill="#4F166F" fill-rule="nonzero"></path>
    </g>
</svg>